<?xml version="1.0" encoding="UTF-8"?>
<!DOCTYPE svg PUBLIC "-//W3C//DTD SVG 1.1//EN" "http://www.w3.org/Graphics/SVG/1.1/DTD/svg11.dtd">
<svg xmlns="http://www.w3.org/2000/svg" version="1.1" width="1200px" height="1200px" style="shape-rendering:geometricPrecision; text-rendering:geometricPrecision; image-rendering:optimizeQuality; fill-rule:evenodd; clip-rule:evenodd" xmlns:xlink="http://www.w3.org/1999/xlink">
<g><path style="opacity:0.945" fill="#000101" d="M 406.5,159.5 C 409.368,159.085 411.535,160.085 413,162.5C 414.732,170.029 417.065,177.362 420,184.5C 429.435,203.141 437.102,222.475 443,242.5C 445.885,256.1 446.218,269.767 444,283.5C 441.205,297.81 438.538,312.143 436,326.5C 434.673,340.687 435.673,354.687 439,368.5C 444.201,383.103 449.201,397.77 454,412.5C 459.86,432.594 460.86,452.928 457,473.5C 453.874,487.212 450.541,500.878 447,514.5C 445.509,525.86 446.842,536.86 451,547.5C 459.429,563.022 466.762,579.022 473,595.5C 474.317,600.1 475.317,604.766 476,609.5C 476.4,647.772 486.733,683.105 507,715.5C 517.607,732.438 528.607,749.104 540,765.5C 542.564,769.462 544.731,773.629 546.5,778C 545.975,781.192 544.142,783.025 541,783.5C 525.281,778.612 509.448,774.112 493.5,770C 483.241,767.546 472.908,765.88 462.5,765C 465.162,772.317 467.828,779.65 470.5,787C 473.795,789.749 475.962,793.249 477,797.5C 477.667,836.5 477.667,875.5 477,914.5C 477.148,946.577 469.481,976.577 454,1004.5C 437.935,1028.62 415.435,1039.45 386.5,1037C 362.512,1029.9 350.512,1013.73 350.5,988.5C 351.993,960.036 364.993,938.703 389.5,924.5C 390.333,882.171 390.833,839.837 391,797.5C 391.366,793.768 393.032,790.768 396,788.5C 399.222,779.057 402.722,769.724 406.5,760.5C 394.658,759.218 382.825,759.218 371,760.5C 367.072,760.406 364.906,758.406 364.5,754.5C 375.68,720.782 384.513,686.449 391,651.5C 391.667,643.5 391.667,635.5 391,627.5C 386.741,610.722 382.074,594.056 377,577.5C 372.811,559.235 372.477,540.901 376,522.5C 380.043,505.661 384.71,488.994 390,472.5C 394.444,458.393 395.444,444.06 393,429.5C 389.825,415.133 386.492,400.8 383,386.5C 379.472,367.691 380.139,349.024 385,330.5C 390.41,313.936 396.41,297.603 403,281.5C 407.57,267.842 409.237,253.842 408,239.5C 405.225,220.748 403.392,201.915 402.5,183C 402.667,177.5 402.833,172 403,166.5C 403.139,163.555 404.306,161.221 406.5,159.5 Z"/></g>
<g><path style="opacity:0.953" fill="#020101" d="M 836.5,176.5 C 858.369,176.023 872.202,186.356 878,207.5C 883.186,229.715 879.519,250.382 867,269.5C 855.138,286.014 840.305,299.181 822.5,309C 793.558,324.305 763.224,335.972 731.5,344C 732.249,345.734 732.749,347.567 733,349.5C 729.516,574.503 725.516,799.503 721,1024.5C 721.033,1041.27 714.533,1054.77 701.5,1065C 675.278,1077.48 655.778,1070.65 643,1044.5C 641.592,1040.94 640.592,1037.28 640,1033.5C 633.826,806.849 628.326,580.183 623.5,353.5C 601.211,352.681 580.544,346.514 561.5,335C 537.682,316.222 527.515,291.722 531,261.5C 534.266,257.245 538.432,254.078 543.5,252C 561.451,246.508 579.785,242.841 598.5,241C 623.821,238.213 649.154,235.547 674.5,233C 698.411,229.918 721.411,223.584 743.5,214C 765.5,204 787.5,194 809.5,184C 818.378,180.533 827.378,178.033 836.5,176.5 Z"/></g>
<g><path style="opacity:1" fill="#6b2f1d" d="M 835.5,185.5 C 846.197,184.044 855.03,187.377 862,195.5C 872.353,211.417 874.353,228.417 868,246.5C 857.758,271.409 840.591,289.909 816.5,302C 788.806,316.787 759.64,327.62 729,334.5C 720.524,318.047 707.024,308.547 688.5,306C 667.478,302.452 649.644,308.286 635,323.5C 630.195,329.775 627.029,336.775 625.5,344.5C 603.316,344.271 582.983,338.104 564.5,326C 545.994,310.144 537.494,289.977 539,265.5C 543.211,261.869 548.045,259.369 553.5,258C 559.149,256.559 564.816,255.226 570.5,254C 607.707,248.613 645.04,244.279 682.5,241C 700.613,238.055 718.28,233.388 735.5,227C 759.285,216.608 782.952,205.941 806.5,195C 815.99,190.891 825.657,187.725 835.5,185.5 Z"/></g>
<g><path style="opacity:1" fill="#487674" d="M 411.5,189.5 C 422.976,209.133 431.142,230.133 436,252.5C 436.667,260.5 436.667,268.5 436,276.5C 432.868,293.823 429.868,311.156 427,328.5C 425.566,343.425 426.899,358.092 431,372.5C 435.803,387.241 440.803,401.908 446,416.5C 451.63,437.07 451.963,457.737 447,478.5C 443.711,490.082 440.711,501.749 438,513.5C 436.288,526.629 437.955,539.296 443,551.5C 451.412,566.992 458.745,582.992 465,599.5C 467.617,616.077 469.617,632.744 471,649.5C 476.552,675.156 486.219,699.156 500,721.5C 510.46,738.257 521.294,754.757 532.5,771C 497.321,760.446 461.321,753.78 424.5,751C 408.156,750.833 391.823,750.333 375.5,749.5C 386.016,717.103 394.183,684.103 400,650.5C 400.667,642.167 400.667,633.833 400,625.5C 395.005,607.524 390.005,589.524 385,571.5C 381.73,555.161 381.73,538.827 385,522.5C 388.715,508.74 392.715,495.073 397,481.5C 399.417,472.251 401.417,462.918 403,453.5C 403.779,443.081 403.113,432.747 401,422.5C 397.65,408.48 394.317,394.48 391,380.5C 388.444,363.955 389.444,347.622 394,331.5C 398.241,318.445 403.074,305.611 408.5,293C 415.468,275.489 418.302,257.323 417,238.5C 414.93,222.179 413.097,205.845 411.5,189.5 Z"/></g>
<g><path style="opacity:1" fill="#f9f7f6" d="M 548.5,265.5 C 551.044,265.104 553.211,265.771 555,267.5C 555.134,278.575 558.8,288.242 566,296.5C 567.913,302.094 566.08,304.261 560.5,303C 552.767,295.493 548.267,286.326 547,275.5C 546.037,271.851 546.537,268.518 548.5,265.5 Z"/></g>
<g><path style="opacity:1" fill="#5c5d60" d="M 670.5,313.5 C 689.155,311.548 704.655,317.548 717,331.5C 723.889,343.208 726.389,355.874 724.5,369.5C 720.214,589.164 716.047,808.831 712,1028.5C 710.524,1042.65 703.691,1053.15 691.5,1060C 675.533,1065.23 663.033,1060.73 654,1046.5C 651.941,1042.32 650.274,1037.99 649,1033.5C 642.594,804.852 637.261,576.186 633,347.5C 638.371,328.242 650.871,316.908 670.5,313.5 Z"/></g>
<g><path style="opacity:1" fill="#f6f6f6" d="M 653.5,331.5 C 659.597,330.263 662.43,332.597 662,338.5C 658.628,339.745 655.461,341.412 652.5,343.5C 650.399,347.88 648.732,352.38 647.5,357C 644.975,357.896 642.808,357.396 641,355.5C 640.162,344.841 644.329,336.841 653.5,331.5 Z"/></g>
<g><path style="opacity:1" fill="#231f20" d="M 669.5,443.5 C 696.496,441.008 710.496,453.175 711.5,480C 708.519,622.829 705.686,765.662 703,908.5C 698.883,929.297 687.049,936.131 667.5,929C 662.132,925.097 658.632,919.93 657,913.5C 652.212,764.858 648.545,616.191 646,467.5C 649.349,454.985 657.182,446.985 669.5,443.5 Z"/></g>
<g><path style="opacity:1" fill="#b66c2a" d="M 459.5,783.5 C 451.193,784.831 442.527,785.498 433.5,785.5C 424.66,785.5 415.993,785.166 407.5,784.5C 410.163,776.178 412.83,767.844 415.5,759.5C 428.04,759.276 440.374,760.609 452.5,763.5C 455.239,770.051 457.572,776.718 459.5,783.5 Z"/></g>
<g><path style="opacity:1" fill="#5c3715" d="M 459.5,783.5 C 460.404,784.209 460.737,785.209 460.5,786.5C 442.488,786.833 424.488,786.5 406.5,785.5C 406.624,784.893 406.957,784.56 407.5,784.5C 415.993,785.166 424.66,785.5 433.5,785.5C 442.527,785.498 451.193,784.831 459.5,783.5 Z"/></g>
<g><path style="opacity:1" fill="#6b2f1d" d="M 402.5,794.5 C 423.169,794.333 443.836,794.5 464.5,795C 465.416,795.374 466.25,795.874 467,796.5C 468.655,837.416 468.988,878.416 468,919.5C 467.202,940.491 463.202,960.824 456,980.5C 447.872,1002.96 432.705,1018.46 410.5,1027C 386.797,1033.06 370.297,1024.9 361,1002.5C 356.607,977.679 363.773,956.846 382.5,940C 388.125,936.277 393.625,932.444 399,928.5C 399.333,884.833 399.667,841.167 400,797.5C 401.045,796.627 401.878,795.627 402.5,794.5 Z"/></g>
<g><path style="opacity:1" fill="#faf8f8" d="M 388.5,942.5 C 393.501,941.671 395.668,943.671 395,948.5C 385.266,956.964 378.266,967.297 374,979.5C 367.667,982.167 365.333,980.167 367,973.5C 371.699,961.428 378.866,951.094 388.5,942.5 Z"/></g>
</svg>
